<?xml version="1.0" encoding="UTF-8"?>
<!-- Original created by Laura Reen (https://thenounproject.com/LauraReen/), located at https://thenounproject.com/icon/2035509/ and licensed under Creative Commons Attribution 3.0. Color and size adjusted for Open Shop Channel. -->
<svg width="24" height="24" version="1.1" viewBox="0 0 24 24" xml:space="preserve" xmlns="http://www.w3.org/2000/svg"><path d="m2.3159 5.8844-2.2604-3.7403 1.5069-1.4961 3.7673 2.2442v1.4961l3.875 3.8472v.3206l-1.3993 1.2824-3.9826-3.9541zm16.146 9.0837h-.8611c-.75346 0-1.3993-.10687-2.0451-.21373l-2.2604 2.5648 5.059 5.664c1.184 1.2824 3.2291 1.3893 4.4131.10687 1.2917-1.2824 1.184-3.206-.10764-4.3815zm3.6597-4.0609c1.7222-1.7099 2.2604-4.2747 1.6146-6.5189-.10764-.42747-.64583-.53434-.8611-.21373l-3.7673 3.7403-3.0139-2.9923 3.7673-3.7403c.32291-.3206.21528-.74807-.21528-.85494-2.2604-.74807-4.8437-.21373-6.5659 1.603-1.9375 1.9236-2.368 4.9159-1.2917 7.267l-10.764 9.5112c-1.2917 1.1755-1.3993 3.206-.10764 4.3815 1.2917 1.2824 3.2291 1.1755 4.4131-.10687l9.5798-10.687c2.368 1.0687 5.2742.6412 7.2117-1.3893z" fill="#34beed"/></svg>
