<?xml version="1.0" encoding="UTF-8"?>
<svg width="79" height="62" version="1.1" viewBox="0 0 79 62" xml:space="preserve" xmlns="http://www.w3.org/2000/svg"><g stroke-linecap="round" stroke-linejoin="bevel"><path transform="matrix(1.2742 0 0 1 -10.831 0)" d="m39.5 62c-28.496 1e-6-31-2.5036-31-31-8e-7-28.496 2.5036-31 31-31 28.496-7.6356e-7 31 2.5036 31 31 1e-6 28.496-2.5036 31-31 31z" fill="#34beed"/><path transform="matrix(1.1591 0 0 1.0774 14.579 14.5)" x="0" y="0" width="7" height="7" rx="0.86272621" d="m.86273 0h5.2745c.47795 0 .86273.38478.86273.86273v5.2745c0 .47795-.38478.86273-.86273.86273h-5.2745c-.47795 0-.86273-.38478-.86273-.86273v-5.2745c0-.47795.38478-.86273.86273-.86273zm12 0h5.2745c.47795 0 .86273.38478.86273.86273v5.2745c0 .47795-.38478.86273-.86273.86273h-5.2745c-.47795 0-.86273-.38478-.86273-.86273v-5.2745c0-.47795.38478-.86273.86273-.86273zm12 0h5.2745c.47795 0 .86273.38478.86273.86273v5.2745c0 .47795-.38478.86273-.86273.86273h-5.2745c-.47795 0-.86273-.38478-.86273-.86273v-5.2745c0-.47795.38478-.86273.86273-.86273zm12 0h5.2745c.47795 0 .86273.38478.86273.86273v5.2745c0 .47795-.38478.86273-.86273.86273h-5.2745c-.47795 0-.86273-.38478-.86273-.86273v-5.2745c0-.47795.38478-.86273.86273-.86273zm-36 12h5.2745c.47795 0 .86273.38478.86273.86273v5.2745c0 .47795-.38478.86273-.86273.86273h-5.2745c-.47795 0-.86273-.38478-.86273-.86273v-5.2745c0-.47795.38478-.86273.86273-.86273zm12 0h5.2745c.47795 0 .86273.38478.86273.86273v5.2745c0 .47795-.38478.86273-.86273.86273h-5.2745c-.47795 0-.86273-.38478-.86273-.86273v-5.2745c0-.47795.38478-.86273.86273-.86273zm12 0h5.2745c.47795 0 .86273.38478.86273.86273v5.2745c0 .47795-.38478.86273-.86273.86273h-5.2745c-.47795 0-.86273-.38478-.86273-.86273v-5.2745c0-.47795.38478-.86273.86273-.86273zm12 0h5.2745c.47795 0 .86273.38478.86273.86273v5.2745c0 .47795-.38478.86273-.86273.86273h-5.2745c-.47795 0-.86273-.38478-.86273-.86273v-5.2745c0-.47795.38478-.86273.86273-.86273zm-36 12h5.2745c.47795 0 .86273.38478.86273.86273v5.2745c0 .47795-.38478.86273-.86273.86273h-5.2745c-.47795 0-.86273-.38478-.86273-.86273v-5.2745c0-.47795.38478-.86273.86273-.86273zm12 0h5.2745c.47795 0 .86273.38478.86273.86273v5.2745c0 .47795-.38478.86273-.86273.86273h-5.2745c-.47795 0-.86273-.38478-.86273-.86273v-5.2745c0-.47795.38478-.86273.86273-.86273zm12 0h5.2745c.47795 0 .86273.38478.86273.86273v5.2745c0 .47795-.38478.86273-.86273.86273h-5.2745c-.47795 0-.86273-.38478-.86273-.86273v-5.2745c0-.47795.38478-.86273.86273-.86273zm12 0h5.2745c.47795 0 .86273.38478.86273.86273v5.2745c0 .47795-.38478.86273-.86273.86273h-5.2745c-.47795 0-.86273-.38478-.86273-.86273v-5.2745c0-.47795.38478-.86273.86273-.86273z" fill="#fff"/></g></svg>
