<?xml version="1.0" encoding="UTF-8"?>
<svg width="79" height="62" version="1.1" viewBox="0 0 79 62" xml:space="preserve" xmlns="http://www.w3.org/2000/svg"><g><path transform="matrix(1.2742 0 0 1 -10.831 0)" d="m39.5 62c-28.496 1e-6-31-2.5036-31-31-8e-7-28.496 2.5036-31 31-31 28.496-7.6356e-7 31 2.5036 31 31 1e-6 28.496-2.5036 31-31 31z" fill="#34beed"/><g fill="#fff"><path transform="matrix(1.053 0 0 1.3679 3.9067 -.93011)" d="m39.5 23.343-11.396 6.5795v-13.159z"/><path transform="translate(-10.511 42.413)" x="22.510712" y="5.5870399" width="10" height="6" ry="1" d="m23.511 5.587h8c.554 0 1 .446 1 1v4c0 .554-.446 1-1 1h-8c-.554 0-1-.446-1-1v-4c0-.554.446-1 1-1zm15 0h8c.554 0 1 .446 1 1v4c0 .554-.446 1-1 1h-8c-.554 0-1-.446-1-1v-4c0-.554.446-1 1-1zm15 0h8c.554 0 1 .446 1 1v4c0 .554-.446 1-1 1h-8c-.554 0-1-.446-1-1v-4c0-.554.446-1 1-1zm15 0h8c.554 0 1 .446 1 1v4c0 .554-.446 1-1 1h-8c-.554 0-1-.446-1-1v-4c0-.554.446-1 1-1z"/><path transform="translate(-10.511 2.413)" x="22.510712" y="5.5870399" width="10" height="6" ry="1" d="m23.511 5.587h8c.554 0 1 .446 1 1v4c0 .554-.446 1-1 1h-8c-.554 0-1-.446-1-1v-4c0-.554.446-1 1-1zm15 0h8c.554 0 1 .446 1 1v4c0 .554-.446 1-1 1h-8c-.554 0-1-.446-1-1v-4c0-.554.446-1 1-1zm15 0h8c.554 0 1 .446 1 1v4c0 .554-.446 1-1 1h-8c-.554 0-1-.446-1-1v-4c0-.554.446-1 1-1zm15 0h8c.554 0 1 .446 1 1v4c0 .554-.446 1-1 1h-8c-.554 0-1-.446-1-1v-4c0-.554.446-1 1-1z"/></g></g></svg>
